<svg width="43" height="50" viewBox="0 0 43 50" fill="none" xmlns="http://www.w3.org/2000/svg">
<g filter="url(#filter0_d_6_5)">
<path d="M39 30.45C38.7594 31.1281 38.5187 31.7625 38.2781 32.375C37.6437 33.8188 36.9 35.1531 36.0469 36.4C34.8656 38.0844 33.9031 39.2437 33.1594 39.8781C32.0219 40.9281 30.775 41.475 29.4625 41.4969C28.5219 41.4969 27.3844 41.2344 26.05 40.6875C24.7156 40.1406 23.4906 39.8781 22.375 39.8781C21.1937 39.8781 19.9469 40.1406 18.5906 40.6875C17.2344 41.2344 16.1625 41.5187 15.3313 41.5406C14.0625 41.5844 12.8156 41.0375 11.5469 39.8781C10.7375 39.1781 9.73125 37.975 8.52813 36.2687C7.2375 34.4531 6.16563 32.3531 5.33438 29.9469C4.4375 27.3437 4 24.8281 4 22.4C4 19.6219 4.6125 17.2156 5.81563 15.2031C6.75625 13.5844 8.025 12.3156 9.6 11.375C11.175 10.4344 12.8813 9.95312 14.7188 9.93125C15.725 9.93125 17.0375 10.2375 18.6781 10.85C20.3188 11.4625 21.3687 11.7687 21.8281 11.7687C22.1781 11.7687 23.3375 11.3969 25.3062 10.675C27.1656 9.99687 28.7406 9.73438 30.0312 9.84375C33.5312 10.1281 36.1562 11.5063 37.9062 13.9781C34.7781 15.8813 33.225 18.5281 33.2687 21.9406C33.2906 24.5875 34.2531 26.7969 36.1562 28.5469C36.9875 29.3781 37.9281 29.9906 39 30.45ZM30.2062 0C30.2281 0.284375 30.25 0.546873 30.25 0.831248C30.25 2.90937 29.4844 4.85625 27.975 6.65C26.1375 8.79375 23.9281 10.0187 21.5438 9.82187C21.5219 9.58125 21.5 9.31875 21.5 9.03437C21.5 7.04375 22.375 4.9 23.9062 3.15C24.6719 2.275 25.6563 1.53125 26.8375 0.940624C28.0406 0.371874 29.1562 0.04375 30.2062 0Z" fill="#333333"/>
</g>
<defs>
<filter id="filter0_d_6_5" x="0" y="0" width="43" height="49.543" filterUnits="userSpaceOnUse" color-interpolation-filters="sRGB">
<feFlood flood-opacity="0" result="BackgroundImageFix"/>
<feColorMatrix in="SourceAlpha" type="matrix" values="0 0 0 0 0 0 0 0 0 0 0 0 0 0 0 0 0 0 127 0" result="hardAlpha"/>
<feOffset dy="4"/>
<feGaussianBlur stdDeviation="2"/>
<feComposite in2="hardAlpha" operator="out"/>
<feColorMatrix type="matrix" values="0 0 0 0 0 0 0 0 0 0 0 0 0 0 0 0 0 0 0.25 0"/>
<feBlend mode="normal" in2="BackgroundImageFix" result="effect1_dropShadow_6_5"/>
<feBlend mode="normal" in="SourceGraphic" in2="effect1_dropShadow_6_5" result="shape"/>
</filter>
</defs>
</svg>
